<svg width="580" height="692" viewBox="0 0 580 692" fill="none" xmlns="http://www.w3.org/2000/svg">
<path fill-rule="evenodd" clip-rule="evenodd" d="M265.897 3.79149C318.864 4.3035 377.17 -10.9997 421.222 22.6982C465.043 56.2197 468.562 127.16 495.231 179.223C522.132 231.74 573.211 270.399 579.101 330.916C585.094 392.483 560.386 454.942 526.794 503.486C495.055 549.354 441.12 561.64 397.877 592.811C352.634 625.425 319.167 686.477 265.897 691.553C212.361 696.655 162.912 657.157 120.6 619.235C81.5677 584.251 55.6821 535.316 34.3784 484.054C14.2867 435.708 3.28772 384.385 0.780276 330.916C-1.82967 275.262 1.54469 219.748 19.5557 167.974C39.3126 111.181 62.9245 50.4234 109.051 19.6805C155.205 -11.0803 212.503 3.27535 265.897 3.79149Z" fill="#FFE57B" fill-opacity="0.85"/>
</svg>
